<svg width="14" height="14" viewBox="0 0 14 14" fill="none" xmlns="http://www.w3.org/2000/svg">
<path opacity="0.4" fill-rule="evenodd" clip-rule="evenodd" d="M13 7.99986H7.99995V13.0002C7.99995 13.552 7.55227 14 7.00002 14C6.44777 14 6 13.552 6 13.0002V7.99986H1.00005C0.447718 7.99986 -6.10352e-05 7.55225 -6.10352e-05 7.00002C-6.10352e-05 6.44784 0.447718 6.00009 1.00005 6.00009H6V0.99993C6 0.447705 6.44777 0 7.00002 0C7.55227 0 7.99995 0.447705 7.99995 0.99993V6.00009H13C13.5523 6.00009 13.9999 6.44784 13.9999 7.00002C13.9999 7.55225 13.5523 7.99986 13 7.99986Z" fill="white"/>
</svg>
